<svg width="25" height="26" viewBox="0 0 25 26" fill="none" xmlns="http://www.w3.org/2000/svg">
<path d="M6.80944 22.2858H21.0475L24.7618 26.0001V13.0001C24.7618 11.6382 23.6475 10.5239 22.2856 10.5239H6.80944C5.44754 10.5239 4.33325 11.6382 4.33325 13.0001V19.8096C4.33325 21.1715 5.44754 22.2858 6.80944 22.2858Z" fill="#312E2E"/>
<path d="M15.3524 17.8285H13.1239L12.6905 19.1285H11.3286L13.6191 12.938H14.7953L17.0858 19.1285H15.7238L15.3524 17.8285V17.8285ZM13.4334 16.838H14.981L14.2381 14.4856L13.4334 16.838V16.838Z" fill="white"/>
<path d="M17.9524 13H3.71428L0 16.7143V2.47619C0 1.11428 1.11428 0 2.47619 0H17.9524C19.3143 0 20.4286 1.11428 20.4286 2.47619V10.5238C20.4286 11.8857 19.3143 13 17.9524 13Z" fill="#4D4D4D"/>
<path d="M13.2477 6.31415C13.2477 6.9332 13.1239 7.42844 12.9381 7.86177C12.7524 8.2951 12.5048 8.66653 12.1334 8.91415L13.1858 9.71891L12.381 10.4618L11.0191 9.40939C10.8953 9.40939 10.7096 9.47129 10.5239 9.47129C10.1524 9.47129 9.781 9.40939 9.40957 9.28558C9.10005 9.16177 8.79052 8.91415 8.5429 8.66653C8.29529 8.41891 8.10957 8.04748 7.98576 7.67606C7.86195 7.30463 7.80005 6.87129 7.80005 6.37606V6.12844C7.80005 5.6332 7.86195 5.19987 7.98576 4.82844C8.10957 4.45701 8.29529 4.08558 8.5429 3.83796C8.79052 3.59035 9.03814 3.34273 9.40957 3.21892C9.71909 3.09511 10.0905 3.0332 10.5239 3.0332C10.8953 3.0332 11.2667 3.09511 11.6381 3.21892C11.9477 3.34273 12.2572 3.59035 12.5048 3.83796C12.7524 4.08558 12.9381 4.45701 13.0619 4.82844C13.1858 5.19987 13.2477 5.6332 13.2477 6.12844V6.31415V6.31415ZM11.8858 6.00463C11.8858 5.32368 11.7619 4.82844 11.5143 4.51892C11.2667 4.14749 10.9572 4.02368 10.5239 4.02368C10.0905 4.02368 9.71909 4.20939 9.53338 4.51892C9.28576 4.89034 9.16195 5.38558 9.16195 6.00463V6.31415C9.16195 6.62368 9.22386 6.9332 9.28576 7.18082C9.34767 7.42844 9.40957 7.67606 9.53338 7.79987C9.65719 7.98558 9.781 8.10939 9.96671 8.17129C10.1524 8.2332 10.3381 8.2951 10.5239 8.2951C10.9572 8.2951 11.3286 8.10939 11.5143 7.79987C11.7619 7.42844 11.8858 6.9332 11.8858 6.25225V6.00463V6.00463Z" fill="white"/>
</svg>
