<svg width="25" height="27" viewBox="0 0 25 27" fill="none" xmlns="http://www.w3.org/2000/svg">
<path d="M3.24 0C2.3807 0 1.55659 0.334663 0.948974 0.930367C0.341356 1.52607 0 2.33402 0 3.17647V22.2353C0 23.0777 0.341356 23.8857 0.948974 24.4814C1.55659 25.0771 2.3807 25.4118 3.24 25.4118H10.1363C9.72373 24.9219 9.36685 24.3893 9.072 23.8235H3.24C2.81035 23.8235 2.3983 23.6562 2.09449 23.3583C1.79068 23.0605 1.62 22.6565 1.62 22.2353H8.43534C8.00207 20.7391 7.98413 19.1566 8.38336 17.6514C8.78259 16.1461 9.58452 14.7726 10.7063 13.6728C11.8281 12.5731 13.229 11.7869 14.7644 11.3955C16.2998 11.004 17.9139 11.0216 19.44 11.4464V3.17647C19.44 2.33402 19.0986 1.52607 18.491 0.930367C17.8834 0.334663 17.0593 0 16.2 0H3.24ZM4.455 3.97059H14.985C15.3072 3.97059 15.6163 4.09609 15.8441 4.31948C16.072 4.54286 16.2 4.84584 16.2 5.16176C16.2 5.47768 16.072 5.78066 15.8441 6.00405C15.6163 6.22744 15.3072 6.35294 14.985 6.35294H4.455C4.13276 6.35294 3.82372 6.22744 3.59587 6.00405C3.36801 5.78066 3.24 5.47768 3.24 5.16176C3.24 4.84584 3.36801 4.54286 3.59587 4.31948C3.82372 4.09609 4.13276 3.97059 4.455 3.97059ZM24.3 19.8529C24.3 21.7485 23.5319 23.5663 22.1648 24.9067C20.7977 26.247 18.9434 27 17.01 27C15.0766 27 13.2223 26.247 11.8552 24.9067C10.4881 23.5663 9.72 21.7485 9.72 19.8529C9.72 17.9574 10.4881 16.1395 11.8552 14.7992C13.2223 13.4589 15.0766 12.7059 17.01 12.7059C18.9434 12.7059 20.7977 13.4589 22.1648 14.7992C23.5319 16.1395 24.3 17.9574 24.3 19.8529ZM16.2324 16.7305C16.1273 16.6597 16.0053 16.6171 15.8783 16.6068C15.7513 16.5965 15.6237 16.6189 15.5083 16.6717C15.414 16.7124 15.3287 16.7706 15.2572 16.8432C15.1062 16.9948 15.0219 17.1984 15.0223 17.4102V22.2941C15.0213 22.3993 15.0415 22.5038 15.0818 22.6013C15.1221 22.6989 15.1817 22.7877 15.2572 22.8626C15.3311 22.9347 15.4171 22.9938 15.5115 23.0374C15.6759 23.1112 15.8624 23.1225 16.0348 23.0691C16.1094 23.045 16.1803 23.0108 16.2454 22.9675L19.9649 20.4787C20.0781 20.4056 20.1692 20.3042 20.2289 20.1849C20.2905 20.0647 20.3221 19.932 20.3213 19.7976C20.3204 19.6631 20.2871 19.5308 20.2241 19.4114C20.1607 19.2939 20.0676 19.1943 19.9535 19.1224L16.2324 16.7305Z" fill="#312E2E"/>
</svg>
