<svg width="24" height="24" viewBox="0 0 24 24" fill="none" xmlns="http://www.w3.org/2000/svg">
<path d="M9.16753 9.742C9.22753 9.326 9.34353 8.962 9.51553 8.65C9.68753 8.334 9.90153 8.072 10.1575 7.864C10.4175 7.652 10.7135 7.494 11.0455 7.39C11.3815 7.282 11.7415 7.228 12.1255 7.228C12.5255 7.228 12.8855 7.286 13.2055 7.402C13.5295 7.514 13.8055 7.672 14.0335 7.876C14.2615 8.076 14.4355 8.312 14.5555 8.584C14.6795 8.856 14.7415 9.15 14.7415 9.466C14.7415 9.742 14.7095 9.986 14.6455 10.198C14.5855 10.406 14.4975 10.588 14.3815 10.744C14.2655 10.9 14.1215 11.032 13.9495 11.14C13.7775 11.248 13.5835 11.338 13.3675 11.41C13.8875 11.574 14.2755 11.824 14.5315 12.16C14.7875 12.496 14.9155 12.918 14.9155 13.426C14.9155 13.858 14.8355 14.24 14.6755 14.572C14.5155 14.904 14.2995 15.184 14.0275 15.412C13.7555 15.636 13.4395 15.806 13.0795 15.922C12.7235 16.038 12.3455 16.096 11.9455 16.096C11.5095 16.096 11.1295 16.046 10.8055 15.946C10.4815 15.846 10.1995 15.698 9.95953 15.502C9.71953 15.306 9.51553 15.066 9.34753 14.782C9.17953 14.498 9.03553 14.17 8.91553 13.798L9.56953 13.528C9.74153 13.456 9.90153 13.438 10.0495 13.474C10.2015 13.506 10.3115 13.586 10.3795 13.714C10.4515 13.854 10.5295 13.992 10.6135 14.128C10.7015 14.264 10.8055 14.386 10.9255 14.494C11.0455 14.598 11.1855 14.684 11.3455 14.752C11.5095 14.816 11.7035 14.848 11.9275 14.848C12.1795 14.848 12.3995 14.808 12.5875 14.728C12.7755 14.644 12.9315 14.536 13.0555 14.404C13.1835 14.272 13.2775 14.126 13.3375 13.966C13.4015 13.802 13.4335 13.638 13.4335 13.474C13.4335 13.266 13.4115 13.078 13.3675 12.91C13.3235 12.738 13.2315 12.592 13.0915 12.472C12.9515 12.352 12.7495 12.258 12.4855 12.19C12.2255 12.122 11.8755 12.088 11.4355 12.088V11.032C11.7995 11.028 12.1015 10.994 12.3415 10.93C12.5815 10.866 12.7715 10.778 12.9115 10.666C13.0555 10.55 13.1555 10.412 13.2115 10.252C13.2675 10.092 13.2955 9.916 13.2955 9.724C13.2955 9.316 13.1815 9.006 12.9535 8.794C12.7255 8.582 12.4215 8.476 12.0415 8.476C11.8655 8.476 11.7035 8.502 11.5555 8.554C11.4075 8.602 11.2735 8.672 11.1535 8.764C11.0375 8.852 10.9395 8.956 10.8595 9.076C10.7795 9.196 10.7195 9.328 10.6795 9.472C10.6115 9.656 10.5215 9.778 10.4095 9.838C10.3015 9.898 10.1475 9.912 9.94753 9.88L9.16753 9.742Z" fill="#545798"/>
<circle cx="12" cy="12" r="11.75" stroke="#545798" stroke-width="0.5"/>
</svg>
