<svg width="24" height="24" viewBox="0 0 24 24" fill="none" xmlns="http://www.w3.org/2000/svg">
<path d="M14.4055 14.62C14.5655 14.62 14.6915 14.666 14.7835 14.758C14.8795 14.846 14.9275 14.964 14.9275 15.112V16H8.97553V15.508C8.97553 15.408 8.99553 15.304 9.03553 15.196C9.07953 15.084 9.14753 14.984 9.23953 14.896L11.8735 12.256C12.0935 12.032 12.2895 11.818 12.4615 11.614C12.6375 11.41 12.7835 11.208 12.8995 11.008C13.0155 10.808 13.1035 10.606 13.1635 10.402C13.2275 10.194 13.2595 9.976 13.2595 9.748C13.2595 9.54 13.2295 9.358 13.1695 9.202C13.1095 9.042 13.0235 8.908 12.9115 8.8C12.8035 8.692 12.6715 8.612 12.5155 8.56C12.3635 8.504 12.1915 8.476 11.9995 8.476C11.8235 8.476 11.6595 8.502 11.5075 8.554C11.3595 8.602 11.2275 8.672 11.1115 8.764C10.9955 8.852 10.8975 8.956 10.8175 9.076C10.7375 9.196 10.6775 9.328 10.6375 9.472C10.5695 9.656 10.4815 9.778 10.3735 9.838C10.2655 9.898 10.1095 9.912 9.90553 9.88L9.12553 9.742C9.18553 9.326 9.30153 8.962 9.47353 8.65C9.64553 8.334 9.85953 8.072 10.1155 7.864C10.3755 7.652 10.6715 7.494 11.0035 7.39C11.3395 7.282 11.6995 7.228 12.0835 7.228C12.4835 7.228 12.8495 7.288 13.1815 7.408C13.5135 7.524 13.7975 7.69 14.0335 7.906C14.2695 8.122 14.4535 8.382 14.5855 8.686C14.7175 8.99 14.7835 9.328 14.7835 9.7C14.7835 10.02 14.7355 10.316 14.6395 10.588C14.5475 10.86 14.4215 11.12 14.2615 11.368C14.1055 11.616 13.9215 11.856 13.7095 12.088C13.4975 12.32 13.2755 12.556 13.0435 12.796L11.0875 14.794C11.2755 14.738 11.4615 14.696 11.6455 14.668C11.8335 14.636 12.0115 14.62 12.1795 14.62H14.4055Z" fill="#545798"/>
<circle cx="12" cy="12" r="11.75" stroke="#545798" stroke-width="0.5"/>
</svg>
